<svg width="143" height="29" viewBox="0 0 143 29" fill="none" xmlns="http://www.w3.org/2000/svg">
<path d="M9.54801 9.07999L8.48701 8.01999L2.70801 13.797C2.61486 13.8896 2.54093 13.9996 2.49048 14.1209C2.44003 14.2421 2.41406 14.3722 2.41406 14.5035C2.41406 14.6348 2.44003 14.7648 2.49048 14.8861C2.54093 15.0073 2.61486 15.1174 2.70801 15.21L8.48701 20.99L9.54701 19.93L4.12301 14.505L9.54801 9.07999Z" fill="white"/>
<path d="M40.168 24C40.008 24 39.904 23.92 39.856 23.76L39.064 21.192C39.032 21.128 38.992 21.096 38.944 21.096H32.608C32.56 21.096 32.52 21.128 32.488 21.192L31.696 23.76C31.648 23.92 31.544 24 31.384 24H28.984C28.888 24 28.816 23.976 28.768 23.928C28.72 23.864 28.712 23.776 28.744 23.664L33.952 7.44C34 7.28 34.104 7.2 34.264 7.2H37.264C37.424 7.2 37.528 7.28 37.576 7.44L42.808 23.664C42.824 23.696 42.832 23.736 42.832 23.784C42.832 23.928 42.744 24 42.568 24H40.168ZM33.232 18.768C33.216 18.864 33.248 18.912 33.328 18.912H38.2C38.296 18.912 38.328 18.864 38.296 18.768L35.824 10.728C35.808 10.664 35.784 10.632 35.752 10.632C35.72 10.632 35.696 10.664 35.68 10.728L33.232 18.768ZM52.2835 7.488C52.2835 7.408 52.3075 7.344 52.3555 7.296C52.4195 7.232 52.4915 7.2 52.5715 7.2H54.7795C54.8595 7.2 54.9235 7.232 54.9715 7.296C55.0355 7.344 55.0675 7.408 55.0675 7.488V23.712C55.0675 23.792 55.0355 23.864 54.9715 23.928C54.9235 23.976 54.8595 24 54.7795 24H52.5715C52.4915 24 52.4195 23.976 52.3555 23.928C52.3075 23.864 52.2835 23.792 52.2835 23.712V22.992C52.2835 22.944 52.2675 22.912 52.2355 22.896C52.2035 22.88 52.1715 22.896 52.1395 22.944C51.4355 23.776 50.5155 24.192 49.3795 24.192C48.2435 24.192 47.2835 23.896 46.4995 23.304C45.7155 22.712 45.1475 21.888 44.7955 20.832C44.5075 19.936 44.3635 18.936 44.3635 17.832C44.3635 16.696 44.4995 15.72 44.7715 14.904C45.1235 13.848 45.6915 13.024 46.4755 12.432C47.2595 11.84 48.2435 11.544 49.4275 11.544C50.5315 11.544 51.4355 11.944 52.1395 12.744C52.1715 12.776 52.2035 12.792 52.2355 12.792C52.2675 12.776 52.2835 12.744 52.2835 12.696V7.488ZM51.7075 20.64C52.0755 19.984 52.2595 19.056 52.2595 17.856C52.2595 16.608 52.0595 15.656 51.6595 15C51.2275 14.296 50.6195 13.944 49.8355 13.944C49.0195 13.944 48.3795 14.28 47.9155 14.952C47.4355 15.656 47.1955 16.632 47.1955 17.88C47.1955 19 47.3875 19.92 47.7715 20.64C48.2195 21.408 48.8995 21.792 49.8115 21.792C50.6275 21.792 51.2595 21.408 51.7075 20.64ZM65.6898 7.488C65.6898 7.408 65.7138 7.344 65.7618 7.296C65.8258 7.232 65.8978 7.2 65.9778 7.2H68.1858C68.2658 7.2 68.3298 7.232 68.3778 7.296C68.4418 7.344 68.4738 7.408 68.4738 7.488V23.712C68.4738 23.792 68.4418 23.864 68.3778 23.928C68.3298 23.976 68.2658 24 68.1858 24H65.9778C65.8978 24 65.8258 23.976 65.7618 23.928C65.7138 23.864 65.6898 23.792 65.6898 23.712V22.992C65.6898 22.944 65.6738 22.912 65.6418 22.896C65.6098 22.88 65.5778 22.896 65.5458 22.944C64.8418 23.776 63.9218 24.192 62.7858 24.192C61.6498 24.192 60.6898 23.896 59.9058 23.304C59.1218 22.712 58.5538 21.888 58.2018 20.832C57.9138 19.936 57.7698 18.936 57.7698 17.832C57.7698 16.696 57.9058 15.72 58.1777 14.904C58.5298 13.848 59.0978 13.024 59.8818 12.432C60.6658 11.84 61.6498 11.544 62.8338 11.544C63.9378 11.544 64.8418 11.944 65.5458 12.744C65.5778 12.776 65.6098 12.792 65.6418 12.792C65.6738 12.776 65.6898 12.744 65.6898 12.696V7.488ZM65.1138 20.64C65.4818 19.984 65.6658 19.056 65.6658 17.856C65.6658 16.608 65.4658 15.656 65.0658 15C64.6338 14.296 64.0258 13.944 63.2418 13.944C62.4258 13.944 61.7858 14.28 61.3218 14.952C60.8418 15.656 60.6018 16.632 60.6018 17.88C60.6018 19 60.7938 19.92 61.1778 20.64C61.6258 21.408 62.3058 21.792 63.2178 21.792C64.0338 21.792 64.6658 21.408 65.1138 20.64ZM86.9727 24C86.8127 24 86.7087 23.92 86.6607 23.76L85.8687 21.192C85.8367 21.128 85.7967 21.096 85.7487 21.096H79.4127C79.3647 21.096 79.3247 21.128 79.2927 21.192L78.5007 23.76C78.4527 23.92 78.3487 24 78.1887 24H75.7887C75.6927 24 75.6207 23.976 75.5727 23.928C75.5247 23.864 75.5167 23.776 75.5487 23.664L80.7567 7.44C80.8047 7.28 80.9087 7.2 81.0687 7.2H84.0687C84.2287 7.2 84.3327 7.28 84.3807 7.44L89.6127 23.664C89.6287 23.696 89.6367 23.736 89.6367 23.784C89.6367 23.928 89.5487 24 89.3727 24H86.9727ZM80.0367 18.768C80.0207 18.864 80.0527 18.912 80.1327 18.912H85.0047C85.1007 18.912 85.1327 18.864 85.1007 18.768L82.6287 10.728C82.6127 10.664 82.5887 10.632 82.5567 10.632C82.5247 10.632 82.5007 10.664 82.4847 10.728L80.0367 18.768ZM99.0882 7.488C99.0882 7.408 99.1122 7.344 99.1602 7.296C99.2242 7.232 99.2962 7.2 99.3762 7.2H101.584C101.664 7.2 101.728 7.232 101.776 7.296C101.84 7.344 101.872 7.408 101.872 7.488V23.712C101.872 23.792 101.84 23.864 101.776 23.928C101.728 23.976 101.664 24 101.584 24H99.3762C99.2962 24 99.2242 23.976 99.1602 23.928C99.1122 23.864 99.0882 23.792 99.0882 23.712V22.992C99.0882 22.944 99.0722 22.912 99.0402 22.896C99.0082 22.88 98.9762 22.896 98.9442 22.944C98.2402 23.776 97.3202 24.192 96.1842 24.192C95.0482 24.192 94.0882 23.896 93.3042 23.304C92.5202 22.712 91.9522 21.888 91.6002 20.832C91.3122 19.936 91.1682 18.936 91.1682 17.832C91.1682 16.696 91.3042 15.72 91.5762 14.904C91.9282 13.848 92.4962 13.024 93.2802 12.432C94.0642 11.84 95.0482 11.544 96.2322 11.544C97.3362 11.544 98.2402 11.944 98.9442 12.744C98.9762 12.776 99.0082 12.792 99.0402 12.792C99.0722 12.776 99.0882 12.744 99.0882 12.696V7.488ZM98.5122 20.64C98.8802 19.984 99.0642 19.056 99.0642 17.856C99.0642 16.608 98.8642 15.656 98.4642 15C98.0322 14.296 97.4242 13.944 96.6402 13.944C95.8242 13.944 95.1842 14.28 94.7202 14.952C94.2402 15.656 94.0002 16.632 94.0002 17.88C94.0002 19 94.1922 19.92 94.5762 20.64C95.0242 21.408 95.7042 21.792 96.6162 21.792C97.4322 21.792 98.0642 21.408 98.5122 20.64ZM118.014 11.544C119.246 11.544 120.206 11.92 120.894 12.672C121.598 13.408 121.95 14.44 121.95 15.768V23.712C121.95 23.792 121.918 23.864 121.854 23.928C121.806 23.976 121.742 24 121.662 24H119.478C119.398 24 119.326 23.976 119.262 23.928C119.214 23.864 119.19 23.792 119.19 23.712V16.344C119.19 15.608 118.99 15.024 118.59 14.592C118.206 14.16 117.686 13.944 117.03 13.944C116.374 13.944 115.838 14.16 115.422 14.592C115.006 15.024 114.798 15.6 114.798 16.32V23.712C114.798 23.792 114.766 23.864 114.702 23.928C114.654 23.976 114.59 24 114.51 24H112.326C112.246 24 112.174 23.976 112.11 23.928C112.062 23.864 112.038 23.792 112.038 23.712V16.344C112.038 15.608 111.838 15.024 111.438 14.592C111.038 14.16 110.51 13.944 109.854 13.944C109.246 13.944 108.742 14.12 108.342 14.472C107.958 14.824 107.734 15.304 107.67 15.912V23.712C107.67 23.792 107.638 23.864 107.574 23.928C107.526 23.976 107.462 24 107.382 24H105.174C105.094 24 105.022 23.976 104.958 23.928C104.91 23.864 104.886 23.792 104.886 23.712V12.024C104.886 11.944 104.91 11.88 104.958 11.832C105.022 11.768 105.094 11.736 105.174 11.736H107.382C107.462 11.736 107.526 11.768 107.574 11.832C107.638 11.88 107.67 11.944 107.67 12.024V12.816C107.67 12.864 107.686 12.896 107.718 12.912C107.75 12.928 107.782 12.912 107.814 12.864C108.166 12.416 108.598 12.088 109.11 11.88C109.638 11.656 110.222 11.544 110.862 11.544C111.646 11.544 112.334 11.704 112.926 12.024C113.518 12.344 113.974 12.808 114.294 13.416C114.342 13.48 114.398 13.48 114.462 13.416C114.814 12.776 115.302 12.304 115.926 12C116.55 11.696 117.246 11.544 118.014 11.544ZM126.369 10.056C125.873 10.056 125.465 9.896 125.145 9.576C124.825 9.256 124.665 8.848 124.665 8.352C124.665 7.856 124.825 7.448 125.145 7.128C125.465 6.808 125.873 6.648 126.369 6.648C126.865 6.648 127.273 6.808 127.593 7.128C127.913 7.448 128.073 7.856 128.073 8.352C128.073 8.848 127.913 9.256 127.593 9.576C127.273 9.896 126.865 10.056 126.369 10.056ZM125.217 24C125.137 24 125.065 23.976 125.001 23.928C124.953 23.864 124.929 23.792 124.929 23.712V12C124.929 11.92 124.953 11.856 125.001 11.808C125.065 11.744 125.137 11.712 125.217 11.712H127.425C127.505 11.712 127.569 11.744 127.617 11.808C127.681 11.856 127.713 11.92 127.713 12V23.712C127.713 23.792 127.681 23.864 127.617 23.928C127.569 23.976 127.505 24 127.425 24H125.217ZM136.782 11.544C138.078 11.544 139.11 11.928 139.878 12.696C140.662 13.464 141.054 14.512 141.054 15.84V23.712C141.054 23.792 141.022 23.864 140.958 23.928C140.91 23.976 140.846 24 140.766 24H138.558C138.478 24 138.406 23.976 138.342 23.928C138.294 23.864 138.27 23.792 138.27 23.712V16.416C138.27 15.68 138.062 15.088 137.646 14.64C137.23 14.176 136.678 13.944 135.99 13.944C135.302 13.944 134.742 14.168 134.31 14.616C133.894 15.064 133.686 15.656 133.686 16.392V23.712C133.686 23.792 133.654 23.864 133.59 23.928C133.542 23.976 133.478 24 133.398 24H131.19C131.11 24 131.038 23.976 130.974 23.928C130.926 23.864 130.902 23.792 130.902 23.712V12.024C130.902 11.944 130.926 11.88 130.974 11.832C131.038 11.768 131.11 11.736 131.19 11.736H133.398C133.478 11.736 133.542 11.768 133.59 11.832C133.654 11.88 133.686 11.944 133.686 12.024V12.792C133.686 12.84 133.702 12.872 133.734 12.888C133.766 12.904 133.79 12.888 133.806 12.84C134.462 11.976 135.454 11.544 136.782 11.544Z" fill="white"/>
</svg>
